<svg width="66" height="66" viewBox="0 0 66 66" fill="none" xmlns="http://www.w3.org/2000/svg">
<circle cx="33" cy="33" r="33" fill="#EF6C57"/>
<path d="M50.95 13H14.05C12.9198 13 12 13.9198 12 15.05V53.3167C12 53.6939 12.3061 54 12.6833 54H52.3167C52.6939 54 53 53.6939 53 53.3167V15.05C53 13.9198 52.0802 13 50.95 13ZM14.05 14.3667H50.95C51.3265 14.3667 51.6333 14.6735 51.6333 15.05V18.4667H13.3667V15.05C13.3667 14.6735 13.6735 14.3667 14.05 14.3667ZM24.9833 49.2167V52.6333H19.5167V49.2167H24.9833ZM26.35 49.2167H31.8167V52.6333H26.35V49.2167ZM33.1833 49.2167H38.65V52.6333H33.1833V49.2167ZM40.0167 49.2167H45.4833V52.6333H40.0167V49.2167ZM13.3667 47.85V24.6167H51.6333V47.85H13.3667ZM13.3667 23.25V19.8333H51.6333V23.25H13.3667ZM13.3667 49.2167H18.15V52.6333H13.3667V49.2167ZM46.85 52.6333V49.2167H51.6333V52.6333H46.85Z" fill="white" stroke="white" stroke-width="0.4"/>
<path d="M18.1503 15.7324H15.417V17.0991H18.1503V15.7324Z" fill="white" stroke="white" stroke-width="0.4"/>
<path d="M22.9335 15.7324H20.2002V17.0991H22.9335V15.7324Z" fill="white" stroke="white" stroke-width="0.4"/>
<path d="M22.9329 29.4004H21.5663V38.2837H17.4663V29.4004H16.0996V38.9671C16.0996 39.3443 16.4057 39.6504 16.7829 39.6504H21.5663V43.7504H22.9329V39.6504H24.9829V38.2837H22.9329V29.4004Z" fill="white" stroke="white" stroke-width="0.4"/>
<path d="M48.8999 38.2837H46.8499V29.4004H45.4833V38.2837H41.3833V29.4004H40.0166V38.9671C40.0166 39.3443 40.3227 39.6504 40.6999 39.6504H45.4833V43.7504H46.8499V39.6504H48.8999V38.2837Z" fill="white" stroke="white" stroke-width="0.4"/>
<path d="M32.5001 29.4004C29.8625 29.4004 27.7168 31.5461 27.7168 34.1837V38.9671C27.7168 41.6047 29.8625 43.7504 32.5001 43.7504C35.1378 43.7504 37.2835 41.6047 37.2835 38.9671V34.1837C37.2835 31.5461 35.1378 29.4004 32.5001 29.4004ZM35.9168 38.9671C35.9168 40.851 34.3841 42.3837 32.5001 42.3837C30.6162 42.3837 29.0835 40.851 29.0835 38.9671V34.1837C29.0835 32.2998 30.6162 30.7671 32.5001 30.7671C34.3841 30.7671 35.9168 32.2998 35.9168 34.1837V38.9671Z" fill="white" stroke="white" stroke-width="0.4"/>
</svg>
