<svg width="66" height="66" viewBox="0 0 66 66" fill="none" xmlns="http://www.w3.org/2000/svg">
<circle cx="33" cy="33" r="33" fill="#EF6C57"/>
<path d="M52.3167 11H12.6833C12.2733 11 12 11.2733 12 11.6833V19.2C12 19.61 12.2733 19.8833 12.6833 19.8833H52.3167C52.7267 19.8833 53 19.61 53 19.2V11.6833C53 11.2733 52.7267 11 52.3167 11ZM51.6333 18.5167H13.3667V12.3667H51.6333V18.5167Z" fill="white" stroke="white" stroke-width="0.4"/>
<path d="M19.517 13.7324H15.417V15.0991H19.517V13.7324Z" fill="white" stroke="white" stroke-width="0.4"/>
<path d="M19.517 15.7832H15.417V17.1499H19.517V15.7832Z" fill="white" stroke="white" stroke-width="0.4"/>
<path d="M12.6833 37.6505H35.2333C35.6433 37.6505 35.9167 37.3772 35.9167 36.9672V23.3005C35.9167 22.8905 35.6433 22.6172 35.2333 22.6172H12.6833C12.2733 22.6172 12 22.8905 12 23.3005V36.9672C12 37.3772 12.2733 37.6505 12.6833 37.6505ZM29.6983 32.3205L34.55 29.8605V35.6689L29.6983 32.3205ZM33.115 36.2839H14.9383L24.3 30.2705L33.115 36.2839ZM34.55 23.9839V28.3572L28.4 31.4322L24.6417 28.8355C24.4367 28.6989 24.095 28.6989 23.89 28.8355L13.3667 35.6689V23.9839H34.55Z" fill="white" stroke="white" stroke-width="0.4"/>
<path d="M17.8087 30.1329C19.107 30.1329 20.2003 29.0396 20.2003 27.7413C20.2003 26.4429 19.107 25.3496 17.8087 25.3496C16.5103 25.3496 15.417 26.4429 15.417 27.7413C15.417 29.0396 16.5103 30.1329 17.8087 30.1329ZM17.8087 26.7163C18.3553 26.7163 18.8337 27.1946 18.8337 27.7413C18.8337 28.2879 18.3553 28.7663 17.8087 28.7663C17.262 28.7663 16.7837 28.2879 16.7837 27.7413C16.7837 27.1946 17.262 26.7163 17.8087 26.7163Z" fill="white" stroke="white" stroke-width="0.4"/>
<path d="M48.2168 22.6172H37.9668V23.9839H48.2168V22.6172Z" fill="white" stroke="white" stroke-width="0.4"/>
<path d="M53.0001 26.0332H37.9668V27.3999H53.0001V26.0332Z" fill="white" stroke="white" stroke-width="0.4"/>
<path d="M53.0001 29.4492H37.9668V30.8159H53.0001V29.4492Z" fill="white" stroke="white" stroke-width="0.4"/>
<path d="M53.0001 32.8672H37.9668V34.2339H53.0001V32.8672Z" fill="white" stroke="white" stroke-width="0.4"/>
<path d="M53.0001 36.2832H37.9668V37.6499H53.0001V36.2832Z" fill="white" stroke="white" stroke-width="0.4"/>
<path d="M27.7167 40.3828H12.6833C12.2733 40.3828 12 40.6561 12 41.0661V51.3161C12 51.7261 12.2733 51.9995 12.6833 51.9995H27.7167C28.1267 51.9995 28.4 51.7261 28.4 51.3161V41.0661C28.4 40.6561 28.1267 40.3828 27.7167 40.3828ZM27.0333 50.6328H13.3667V41.7495H27.0333V50.6328Z" fill="white" stroke="white" stroke-width="0.4"/>
<path d="M52.3169 40.3828H31.1335C30.7235 40.3828 30.4502 40.6561 30.4502 41.0661V51.3161C30.4502 51.7261 30.7235 51.9995 31.1335 51.9995H52.3169C52.7269 51.9995 53.0002 51.7261 53.0002 51.3161V41.0661C53.0002 40.6561 52.7269 40.3828 52.3169 40.3828ZM44.8002 41.7495V50.6328H39.3335V41.7495H44.8002ZM31.8169 41.7495H37.9669V50.6328H31.8169V41.7495ZM51.6335 50.6328H46.1669V41.7495H51.6335V50.6328Z" fill="white" stroke="white" stroke-width="0.4"/>
<path d="M21.5663 45.166H18.833V46.5327H21.5663V45.166Z" fill="white" stroke="white" stroke-width="0.4"/>
<path d="M25.6669 45.166H22.9336V46.5327H25.6669V45.166Z" fill="white" stroke="white" stroke-width="0.4"/>
<path d="M17.4667 45.166H14.7334V46.5327H17.4667V45.166Z" fill="white" stroke="white" stroke-width="0.4"/>
</svg>
