<svg width="66" height="66" viewBox="0 0 66 66" fill="none" xmlns="http://www.w3.org/2000/svg">
<circle cx="33" cy="33" r="33" fill="#EF6C57"/>
<path d="M52.3167 12H12.6833C12.2733 12 12 12.2733 12 12.6833V52.3167C12 52.7267 12.2733 53 12.6833 53H15.4167H38.65H41.3833H49.5833H52.3167C52.7267 53 53 52.7267 53 52.3167V12.6833C53 12.2733 52.7267 12 52.3167 12ZM51.6333 13.3667V26.35H13.3667V13.3667H51.6333ZM16.1 51.6333V46.1667H37.9667V51.6333H16.1ZM42.0667 51.6333V46.1667H48.9V51.6333H42.0667ZM50.2667 51.6333V45.4833C50.2667 45.0733 49.9933 44.8 49.5833 44.8H41.3833C40.9733 44.8 40.7 45.0733 40.7 45.4833V51.6333H39.3333V45.4833C39.3333 45.0733 39.06 44.8 38.65 44.8H15.4167C15.0067 44.8 14.7333 45.0733 14.7333 45.4833V51.6333H13.3667V27.7167H51.6333V51.6333H50.2667Z" fill="white" stroke="white" stroke-width="0.4"/>
<path d="M33.8642 22.9297H31.1309V24.2964H33.8642V22.9297Z" fill="white" stroke="white" stroke-width="0.4"/>
<path d="M29.0869 22.9297H26.3535V24.2964H29.0869V22.9297Z" fill="white" stroke="white" stroke-width="0.4"/>
<path d="M38.6562 22.9297H35.9229V24.2964H38.6562V22.9297Z" fill="white" stroke="white" stroke-width="0.4"/>
<path d="M24.9883 29.0957H15.4216C15.0116 29.0957 14.7383 29.369 14.7383 29.779V42.7624C14.7383 43.1724 15.0116 43.4457 15.4216 43.4457H24.9883C25.3983 43.4457 25.6716 43.1724 25.6716 42.7624V29.779C25.6716 29.369 25.3983 29.0957 24.9883 29.0957ZM24.305 30.4624V34.5624H16.1049V30.4624H24.305ZM16.1049 42.079V35.929H24.305V42.079H16.1049Z" fill="white" stroke="white" stroke-width="0.4"/>
<path d="M37.2852 29.0957H27.7185C27.3085 29.0957 27.0352 29.369 27.0352 29.779V42.7624C27.0352 43.1724 27.3085 43.4457 27.7185 43.4457H37.2852C37.6952 43.4457 37.9685 43.1724 37.9685 42.7624V29.779C37.9685 29.369 37.6952 29.0957 37.2852 29.0957ZM36.6018 30.4624V34.5624H28.4018V30.4624H36.6018ZM28.4018 42.079V35.929H36.6018V42.079H28.4018Z" fill="white" stroke="white" stroke-width="0.4"/>
<path d="M49.5772 29.0957H40.0105C39.6005 29.0957 39.3271 29.369 39.3271 29.779V42.7624C39.3271 43.1724 39.6005 43.4457 40.0105 43.4457H49.5772C49.9872 43.4457 50.2605 43.1724 50.2605 42.7624V29.779C50.2605 29.369 49.9872 29.0957 49.5772 29.0957ZM48.8938 30.4624V34.5624H40.6938V30.4624H48.8938ZM40.6938 42.079V35.929H48.8938V42.079H40.6938Z" fill="white" stroke="white" stroke-width="0.4"/>
<path d="M22.9309 37.2734H20.8809V38.6401H22.9309V37.2734Z" fill="white" stroke="white" stroke-width="0.4"/>
<path d="M22.9272 39.3457H18.8271V40.7124H22.9272V39.3457Z" fill="white" stroke="white" stroke-width="0.4"/>
<path d="M35.2346 37.2734H33.1846V38.6401H35.2346V37.2734Z" fill="white" stroke="white" stroke-width="0.4"/>
<path d="M35.2309 39.3457H31.1309V40.7124H35.2309V39.3457Z" fill="white" stroke="white" stroke-width="0.4"/>
<path d="M47.5383 37.2734H45.4883V38.6401H47.5383V37.2734Z" fill="white" stroke="white" stroke-width="0.4"/>
<path d="M47.5346 39.3457H43.4346V40.7124H47.5346V39.3457Z" fill="white" stroke="white" stroke-width="0.4"/>
</svg>
