<svg width="148" height="148" viewBox="0 0 148 148" fill="none" xmlns="http://www.w3.org/2000/svg">
<path d="M74 111L56.2906 145.85L56.8052 106.762L24.9289 129.39L43.5496 95.0184L4.8088 100.241L37.2698 78.4599L0.539543 65.0803L39.4044 60.8796L13.0992 31.9632L49.4645 46.3051L39.6105 8.47625L65.1453 38.0752L74 0L82.8547 38.0752L108.39 8.47625L98.5355 46.3051L134.901 31.9632L108.596 60.8796L147.46 65.0803L110.73 78.4599L143.191 100.241L104.45 95.0184L123.071 129.39L91.1948 106.762L91.7094 145.85L74 111Z" fill="#EF6D58"/>
<path d="M86.4093 56.8116C83.0142 53.4641 78.5174 51.6573 73.7455 51.7245C64.0115 51.8613 56.197 59.8965 56.3258 69.6363C56.3857 74.1619 58.1541 78.4451 61.3055 81.6967C63.758 84.2272 65.1086 87.5013 65.1086 90.9161V93.3016C65.1086 96.6538 67.2596 99.5119 70.2532 100.572V101.046C70.2532 102.675 71.5781 104 73.2066 104H74.793C76.4217 104 77.7465 102.675 77.7465 101.046V100.572C80.7399 99.5117 82.8906 96.6537 82.8906 93.3016V90.9161C82.8906 87.4963 84.2366 84.2266 86.681 81.7098C89.9014 78.3937 91.6749 74.0214 91.6749 69.3982C91.675 64.6298 89.805 60.1597 86.4093 56.8116ZM75.663 101.046H75.6628C75.6628 101.526 75.2727 101.916 74.7932 101.916H73.2068C72.7272 101.916 72.3371 101.526 72.3371 101.046V100.996C72.4969 101.006 72.6576 101.013 72.82 101.013H75.1798C75.3422 101.013 75.5031 101.006 75.663 100.996V101.046ZM75.1796 98.9288H72.8198C70.5334 98.9288 68.5624 97.5573 67.6828 95.5946H80.3165C79.4367 97.5573 77.4659 98.9288 75.1796 98.9288ZM80.8069 93.3015C80.8069 93.3716 80.8042 93.4413 80.8016 93.5108H67.1976C67.195 93.4413 67.1923 93.3716 67.1923 93.3015V91.958H80.8068V93.3015H80.8069ZM73.9998 68.5226C74.6326 68.5226 75.2508 68.4019 75.8285 68.1717L76.4841 69.1495C74.8612 69.5988 73.1379 69.5988 71.5151 69.1495L72.1708 68.1717C72.7483 68.4021 73.3667 68.5226 73.9998 68.5226ZM73.3782 66.3708L73.9997 65.4439L74.6213 66.3708C74.4189 66.4156 74.2109 66.4388 74.0001 66.4388C73.7887 66.4388 73.5806 66.4156 73.3782 66.3708ZM77.056 71.1525V89.874H75.0416V71.5225C75.7209 71.4605 76.3952 71.3364 77.056 71.1525ZM72.9578 71.5225V89.874H70.9434V71.1525C71.6043 71.3364 72.2783 71.4604 72.9578 71.5225ZM85.1862 80.2578C82.6107 82.9099 81.0909 86.2916 80.8434 89.874H79.1398V69.6855C79.1398 69.4788 79.0784 69.2769 78.9632 69.1052L74.865 62.9926C74.6715 62.704 74.3469 62.5309 73.9996 62.5309C73.6523 62.5309 73.3276 62.704 73.1343 62.9926L69.036 69.1052C68.921 69.2769 68.8594 69.4788 68.8594 69.6855V89.8741H67.1555C66.907 86.296 65.3837 82.9103 62.8017 80.2465C60.022 77.3783 58.4622 73.6004 58.4094 69.6088C58.3545 65.4673 59.9279 61.5375 62.8395 58.5429C65.7515 55.5478 69.635 53.8664 73.7749 53.8083C73.8503 53.8071 73.9256 53.8068 74.0011 53.8068C78.126 53.8068 82.0053 55.3958 84.9461 58.2957C87.9414 61.2492 89.591 65.1922 89.591 69.3983C89.5912 73.476 88.0268 77.3328 85.1862 80.2578Z" fill="white" stroke="white" stroke-width="0.4"/>
<path d="M77.8989 55.7395C77.3457 55.5816 76.7689 55.9016 76.6107 56.455C76.4525 57.0082 76.7728 57.585 77.3261 57.7431C82.5029 59.2229 86.1183 64.0154 86.1183 69.3976C86.1183 69.9731 86.5848 70.4396 87.1603 70.4396C87.7358 70.4396 88.2023 69.9731 88.2023 69.3976C88.2022 63.09 83.9653 57.4735 77.8989 55.7395Z" fill="white" stroke="white" stroke-width="1.1"/>
<path d="M74.7806 55.2165C74.4542 55.1987 74.1238 55.192 73.7951 55.1968C73.2197 55.2047 72.7597 55.6776 72.7677 56.253C72.7756 56.8234 73.2406 57.2805 73.8093 57.2805C73.8142 57.2805 73.819 57.2805 73.824 57.2804C74.1052 57.2765 74.3881 57.2821 74.667 57.2971C74.6863 57.2983 74.7055 57.2986 74.7246 57.2986C75.274 57.2986 75.7338 56.8686 75.7641 56.3134C75.7957 55.7391 75.3551 55.248 74.7806 55.2165Z" fill="white" stroke="white" stroke-width="1.1"/>
<path d="M96.5822 68.582H94.7627C94.1872 68.582 93.7207 69.0485 93.7207 69.624C93.7207 70.1995 94.1872 70.666 94.7627 70.666H96.5822C97.1577 70.666 97.6242 70.1995 97.6242 69.624C97.624 69.0485 97.1576 68.582 96.5822 68.582Z" fill="white" stroke="white" stroke-width="1.1"/>
<path d="M53.2358 68.582H51.4179C50.8425 68.582 50.376 69.0485 50.376 69.624C50.376 70.1995 50.8425 70.666 51.4179 70.666H53.2357C53.8112 70.666 54.2777 70.1995 54.2777 69.624C54.2777 69.0485 53.8112 68.582 53.2358 68.582Z" fill="white" stroke="white" stroke-width="1.1"/>
<path d="M94.4585 57.8102C94.1707 57.3117 93.5335 57.1411 93.0352 57.4289L91.4596 58.3385C90.9612 58.6263 90.7905 59.2635 91.0783 59.7618C91.2712 60.0961 91.6214 60.2829 91.9816 60.2829C92.1583 60.2829 92.3375 60.2379 92.5015 60.1431L94.0772 59.2334C94.5755 58.9457 94.7462 58.3085 94.4585 57.8102Z" fill="white" stroke="white" stroke-width="1.1"/>
<path d="M56.92 79.486C56.6323 78.9875 55.9951 78.8169 55.4967 79.1047L53.9225 80.0135C53.4241 80.3012 53.2534 80.9385 53.5412 81.4368C53.7341 81.7711 54.0843 81.9579 54.4445 81.9579C54.6212 81.9579 54.8004 81.9129 54.9644 81.8181L56.5387 80.9092C57.0369 80.6215 57.2077 79.9843 56.92 79.486Z" fill="white" stroke="white" stroke-width="1.1"/>
<path d="M85.8117 49.1632C85.3132 48.8755 84.6761 49.0462 84.3884 49.5445L83.4787 51.1202C83.1909 51.6184 83.3616 52.2556 83.86 52.5434C84.024 52.6381 84.2032 52.6832 84.3799 52.6832C84.74 52.6832 85.0902 52.4964 85.2832 52.1621L86.193 50.5865C86.4807 50.0882 86.31 49.451 85.8117 49.1632Z" fill="white" stroke="white" stroke-width="1.1"/>
<path d="M74 46C73.4245 46 72.958 46.4665 72.958 47.042V48.8615C72.958 49.437 73.4245 49.9034 74 49.9034C74.5754 49.9034 75.0419 49.437 75.0419 48.8615V47.042C75.0419 46.4665 74.5753 46 74 46Z" fill="white" stroke="white" stroke-width="1.1"/>
<path d="M64.5211 51.1241L63.6113 49.5484C63.3236 49.0501 62.6861 48.8794 62.1881 49.1671C61.6898 49.4549 61.519 50.0921 61.8068 50.5904L62.7165 52.166C62.9095 52.5003 63.2597 52.6871 63.6198 52.6871C63.7966 52.6871 63.9759 52.6421 64.1398 52.5473C64.6381 52.2596 64.8088 51.6224 64.5211 51.1241Z" fill="white" stroke="white" stroke-width="1.1"/>
<path d="M56.5401 58.3385L54.9645 57.4289C54.4661 57.141 53.8289 57.3119 53.5412 57.8102C53.2534 58.3085 53.4242 58.9457 53.9225 59.2335L55.4981 60.1431C55.6622 60.2378 55.8414 60.2829 56.0181 60.2829C56.3782 60.2829 56.7284 60.0961 56.9214 59.7618C57.2091 59.2635 57.0384 58.6262 56.5401 58.3385Z" fill="white" stroke="white" stroke-width="1.1"/>
<path d="M94.0768 80.0135L92.5025 79.1047C92.0042 78.8168 91.3669 78.9877 91.0792 79.486C90.7915 79.9843 90.9622 80.6215 91.4605 80.9093L93.0348 81.8181C93.1988 81.9128 93.3781 81.9579 93.5548 81.9579C93.9149 81.9579 94.2651 81.7711 94.4581 81.4368C94.7459 80.9385 94.5752 80.3012 94.0768 80.0135Z" fill="white" stroke="white" stroke-width="1.1"/>
</svg>
