<svg width="1362" height="1251" viewBox="0 0 1362 1251" fill="none" xmlns="http://www.w3.org/2000/svg">
<path d="M326.472 372.657C323.741 374.986 323.415 379.089 325.745 381.82C328.074 384.552 332.177 384.877 334.908 382.548L326.472 372.657ZM457.439 183.336L463.857 184.368L457.439 183.336ZM461.934 113.616L468.434 113.562L461.934 113.616ZM455.147 61.5234L449.135 63.9941L455.147 61.5234ZM376.877 22.0356L377.352 15.553L376.877 22.0356ZM97.2892 163.592L102.354 167.666L102.354 167.666L97.2892 163.592ZM19.0187 321.191L25.3571 322.631L19.0187 321.191ZM7.73646 491.658L1.23964 491.862L7.73646 491.658ZM40.878 653.488L46.7506 650.702L46.7506 650.702L40.878 653.488ZM144.533 776.887L140.884 782.266L140.884 782.266L144.533 776.887ZM291.379 822.898L291.367 816.398L291.379 822.898ZM444.923 767.72L441.147 762.43L444.923 767.72ZM655.759 482.315L661.941 484.324L655.759 482.315ZM666.16 403.516L672.114 400.907L672.114 400.907L666.16 403.516ZM586.744 389.325L585.756 382.901L586.744 389.325ZM536.943 425.992L530.644 424.39L536.943 425.992ZM572.817 523.302L567.789 527.42L572.817 523.302ZM733.501 657.014L736.739 651.378L733.501 657.014ZM891.188 702.231L890.256 695.798L890.256 695.798L891.188 702.231ZM959.674 619.553L966.059 620.771L959.674 619.553ZM952.535 382.714L946.116 383.735L952.535 382.714ZM890.923 165.708L896.816 162.964L890.923 165.708ZM830.458 107.269L830.348 113.768L830.458 107.269ZM773.341 150.107L779.197 152.927L773.341 150.107ZM789.56 289.989L783.808 293.016L789.56 289.989ZM878.231 427.138L872.856 430.794L872.856 430.794L878.231 427.138ZM987.88 605.803L982.076 608.729L987.88 605.803ZM1071.53 1019.98L1065.05 1019.4L1071.53 1019.98ZM998.281 1230.56L993.601 1226.05L993.601 1226.05L998.281 1230.56ZM968.312 1239.46L963.315 1243.62L968.312 1239.46ZM952.799 1162.69L959.291 1162.35L952.799 1162.69ZM1044.38 682.046L1050.49 684.273L1044.38 682.046ZM1357.2 0L1294.38 41.0787L1361.36 74.9398L1357.2 0ZM334.908 382.548C393.855 332.269 450.98 264.474 463.857 184.368L451.021 182.305C438.884 257.809 384.636 323.047 326.472 372.657L334.908 382.548ZM463.857 184.368C467.621 160.951 468.627 136.954 468.434 113.562L455.435 113.669C455.625 136.655 454.629 159.864 451.021 182.305L463.857 184.368ZM468.434 113.562C468.296 96.8977 468.331 76.5041 461.159 59.0527L449.135 63.9941C455.17 78.6776 455.291 96.355 455.435 113.669L468.434 113.562ZM461.159 59.0527C454.109 41.8965 440.026 31.5478 424.592 25.2871C409.225 19.0537 391.952 16.6228 377.352 15.553L376.402 28.5182C390.504 29.5515 406.197 31.8543 419.706 37.3338C433.147 42.7861 443.848 51.1297 449.135 63.9941L461.159 59.0527ZM377.352 15.553C266.208 7.40881 158.656 76.9189 92.2241 159.519L102.354 167.666C167.273 86.9482 271.085 20.801 376.402 28.5182L377.352 15.553ZM92.2241 159.519C55.2186 205.53 25.8668 261.73 12.6803 319.75L25.3571 322.631C38.0459 266.801 66.4052 212.364 102.354 167.666L92.2241 159.519ZM12.6803 319.75C-0.0160469 375.614 -0.520096 435.638 1.23964 491.862L14.2333 491.455C12.4794 435.42 13.0485 376.789 25.3571 322.631L12.6803 319.75ZM1.23964 491.862C2.98045 547.481 10.5133 604.649 35.0054 656.274L46.7506 650.702C23.3762 601.433 15.9511 546.338 14.2333 491.455L1.23964 491.862ZM35.0054 656.274C58.2329 705.233 95.6609 751.586 140.884 782.266L148.183 771.508C105.097 742.278 69.1047 697.82 46.7506 650.702L35.0054 656.274ZM140.884 782.266C184.077 811.569 238.882 829.492 291.39 829.398L291.367 816.398C241.642 816.487 189.363 799.446 148.183 771.508L140.884 782.266ZM291.39 829.398C349.575 829.293 402.783 805.785 448.699 773.011L441.147 762.43C396.598 794.228 345.985 816.3 291.367 816.398L291.39 829.398ZM448.699 773.011C547.946 702.171 624.192 600.514 661.941 484.324L649.578 480.307C612.719 593.754 538.212 693.147 441.147 762.43L448.699 773.011ZM661.941 484.324C665.219 474.235 670.396 459.58 673.459 444.762C676.478 430.156 677.801 413.884 672.114 400.907L660.207 406.125C664.176 415.182 663.649 428 660.728 442.13C657.851 456.048 652.999 469.776 649.578 480.307L661.941 484.324ZM672.114 400.907C668.681 393.075 661.988 388.166 654.59 385.14C647.223 382.127 638.592 380.729 630.121 380.195C613.156 379.124 595.262 381.438 585.756 382.901L587.732 395.749C597.031 394.319 613.789 392.19 629.302 393.169C637.071 393.659 644.135 394.909 649.669 397.173C655.171 399.423 658.583 402.419 660.207 406.125L672.114 400.907ZM585.756 382.901C563.427 386.336 537.476 397.535 530.644 424.39L543.243 427.595C548.074 408.602 566.91 398.953 587.732 395.749L585.756 382.901ZM530.644 424.39C525.641 444.056 529.789 463.452 537.587 480.892C545.377 498.313 557.028 514.281 567.789 527.42L577.846 519.183C567.353 506.37 556.548 491.448 549.455 475.585C542.37 459.742 539.207 443.459 543.243 427.595L530.644 424.39ZM567.789 527.42C612.324 581.803 669.691 627.846 730.263 662.649L736.739 651.378C677.321 617.237 621.237 572.168 577.846 519.183L567.789 527.42ZM730.263 662.649C776.156 689.019 835.07 716.928 892.12 708.663L890.256 695.798C838.045 703.361 782.655 677.76 736.739 651.378L730.263 662.649ZM892.12 708.663C939.952 701.734 958.435 660.726 966.059 620.771L953.29 618.335C945.879 657.173 929.24 690.15 890.256 695.798L892.12 708.663ZM966.059 620.771C980.901 542.991 971.065 457.841 958.954 381.693L946.116 383.735C958.214 459.799 967.669 542.975 953.29 618.335L966.059 620.771ZM958.954 381.693C947.192 307.737 928.786 231.621 896.816 162.964L885.031 168.452C916.293 235.588 934.451 310.395 946.116 383.735L958.954 381.693ZM896.816 162.964C890.939 150.344 883.54 135.123 873.284 123C862.915 110.746 849.129 101.085 830.568 100.77L830.348 113.768C843.924 113.998 854.476 120.898 863.359 131.397C872.354 142.028 879.119 155.754 885.031 168.452L896.816 162.964ZM830.568 100.77C800.478 100.26 778.573 124.269 767.485 147.286L779.197 152.927C789.455 131.633 807.87 113.387 830.348 113.768L830.568 100.77ZM767.485 147.286C743.689 196.687 760.996 249.673 783.808 293.016L795.312 286.961C772.87 244.321 758.258 196.397 779.197 152.927L767.485 147.286ZM783.808 293.016C809.424 341.687 842.494 386.15 872.856 430.794L883.606 423.483C852.822 378.219 820.475 334.772 795.312 286.961L783.808 293.016ZM872.856 430.794C912.247 488.712 950.699 546.485 982.076 608.729L993.684 602.877C961.883 539.791 922.988 481.389 883.606 423.483L872.856 430.794ZM982.076 608.729C1046.34 736.214 1077.99 876.87 1065.05 1019.4L1078 1020.57C1091.19 875.331 1058.9 732.255 993.684 602.877L982.076 608.729ZM1065.05 1019.4C1058.7 1089.37 1043.07 1174.72 993.601 1226.05L1002.96 1235.07C1055.9 1180.14 1071.66 1090.46 1078 1020.57L1065.05 1019.4ZM993.601 1226.05C990.557 1229.2 986.093 1233.54 981.601 1235.86C979.398 1237 977.739 1237.36 976.59 1237.28C975.711 1237.22 974.632 1236.89 973.31 1235.3L963.315 1243.62C966.736 1247.73 971.017 1249.93 975.701 1250.25C980.114 1250.55 984.22 1249.14 987.566 1247.41C994.174 1244 999.952 1238.19 1002.96 1235.07L993.601 1226.05ZM973.31 1235.3C967.103 1227.84 963.651 1215.37 961.795 1201.13C959.961 1187.06 959.841 1172.91 959.291 1162.35L946.308 1163.02C946.819 1172.83 946.983 1188.08 948.904 1202.81C950.802 1217.38 954.576 1233.11 963.315 1243.62L973.31 1235.3ZM959.291 1162.35C950.762 998.593 994.521 837.734 1050.49 684.273L1038.27 679.819C982.121 833.792 937.642 996.63 946.308 1163.02L959.291 1162.35ZM1050.49 684.273C1129.45 467.76 1232.57 261.029 1336.61 55.1416L1325 49.2787C1221 255.109 1117.53 462.485 1038.27 679.819L1050.49 684.273Z" fill="white"/>
</svg>
