<svg width="80" height="80" viewBox="0 0 80 80" fill="none" xmlns="http://www.w3.org/2000/svg">
<circle cx="40" cy="40" r="40" fill="#EF6C57"/>
<path d="M58.125 21.875V29.125H21.875V21.875H58.125ZM58.125 18.25H21.875C20.9136 18.25 19.9916 18.6319 19.3117 19.3117C18.6319 19.9916 18.25 20.9136 18.25 21.875V29.125C18.25 30.0864 18.6319 31.0084 19.3117 31.6883C19.9916 32.3681 20.9136 32.75 21.875 32.75H58.125C59.0864 32.75 60.0084 32.3681 60.6883 31.6883C61.3681 31.0084 61.75 30.0864 61.75 29.125V21.875C61.75 20.9136 61.3681 19.9916 60.6883 19.3117C60.0084 18.6319 59.0864 18.25 58.125 18.25V18.25Z" fill="white"/>
<path d="M29.125 40V58.125H21.875V40H29.125ZM29.125 36.375H21.875C20.9136 36.375 19.9916 36.7569 19.3117 37.4367C18.6319 38.1166 18.25 39.0386 18.25 40V58.125C18.25 59.0864 18.6319 60.0084 19.3117 60.6883C19.9916 61.3681 20.9136 61.75 21.875 61.75H29.125C30.0864 61.75 31.0084 61.3681 31.6883 60.6883C32.3681 60.0084 32.75 59.0864 32.75 58.125V40C32.75 39.0386 32.3681 38.1166 31.6883 37.4367C31.0084 36.7569 30.0864 36.375 29.125 36.375Z" fill="white"/>
<path d="M58.125 40V58.125H40V40H58.125ZM58.125 36.375H40C39.0386 36.375 38.1166 36.7569 37.4367 37.4367C36.7569 38.1166 36.375 39.0386 36.375 40V58.125C36.375 59.0864 36.7569 60.0084 37.4367 60.6883C38.1166 61.3681 39.0386 61.75 40 61.75H58.125C59.0864 61.75 60.0084 61.3681 60.6883 60.6883C61.3681 60.0084 61.75 59.0864 61.75 58.125V40C61.75 39.0386 61.3681 38.1166 60.6883 37.4367C60.0084 36.7569 59.0864 36.375 58.125 36.375Z" fill="white"/>
</svg>
