<svg width="66" height="66" viewBox="0 0 66 66" fill="none" xmlns="http://www.w3.org/2000/svg">
<circle cx="33" cy="33" r="33" fill="#EF6C57"/>
<path d="M53.3167 14H13.6833C13.2733 14 13 14.2733 13 14.6833V35.1833C13 35.5933 13.2733 35.8667 13.6833 35.8667H19.15V34.5H17.1V26.3H19.15V24.9333H14.3667V15.3667H52.6333V35.1833H54V14.6833C54 14.2733 53.7267 14 53.3167 14ZM15.7333 26.3V34.5H14.3667V26.3H15.7333Z" fill="white" stroke="white" stroke-width="0.4"/>
<path d="M31.4501 42.0161H28.0335V31.0828H29.4001C29.8101 31.0828 30.0835 30.8095 30.0835 30.3995V23.5661C30.0835 23.1561 29.8101 22.8828 29.4001 22.8828H21.2001C20.7901 22.8828 20.5168 23.1561 20.5168 23.5661V30.3995C20.5168 30.8095 20.7901 31.0828 21.2001 31.0828H22.5668V42.0161H19.1501C18.7401 42.0161 18.4668 42.2895 18.4668 42.6995V46.1161C18.4668 46.5261 18.7401 46.7995 19.1501 46.7995H20.5168V54.9995H21.8835V52.9495H24.6168V51.5828H21.8835V49.5328H24.6168V48.1661H21.8835V46.7995H28.7168V54.9995H30.0835V46.7995H31.4501C31.8601 46.7995 32.1335 46.5261 32.1335 46.1161V42.6995C32.1335 42.2895 31.8601 42.0161 31.4501 42.0161ZM21.8835 29.7161V24.2495H28.7168V29.7161H27.3501C26.9401 29.7161 26.6668 29.9895 26.6668 30.3995V42.0161H23.9335V31.0828H25.3001V29.7161H23.2501H21.8835ZM30.7668 45.4328H29.4001H21.2001H19.8335V43.3828H23.2501H27.3501H30.7668V45.4328Z" fill="white" stroke="white" stroke-width="0.4"/>
<path d="M19.8337 17.416H16.417V18.7827H19.8337V17.416Z" fill="white" stroke="white" stroke-width="0.4"/>
<path d="M25.9831 17.416H22.5664V18.7827H25.9831V17.416Z" fill="white" stroke="white" stroke-width="0.4"/>
<path d="M32.1335 17.416H28.7168V18.7827H32.1335V17.416Z" fill="white" stroke="white" stroke-width="0.4"/>
<path d="M38.2829 17.416H34.8662V18.7827H38.2829V17.416Z" fill="white" stroke="white" stroke-width="0.4"/>
<path d="M31.4502 26.3003H34.1835V34.5003H31.4502V35.8669H38.2835V34.5003H35.5502V26.3003H38.2835V24.9336H31.4502V26.3003Z" fill="white" stroke="white" stroke-width="0.4"/>
<path d="M53.3162 42.7005H51.4029C51.3345 42.6322 51.3345 42.4955 51.2662 42.4272L52.6329 41.1972C52.7695 41.0605 52.8379 40.9239 52.8379 40.7189C52.8379 40.5139 52.7695 40.3772 52.6329 40.2405L49.7629 37.3705C49.4895 37.0972 49.0795 37.0972 48.8062 37.3705L47.5079 38.6689C47.3712 38.6005 47.3029 38.6005 47.2345 38.5322V36.5505C47.2345 36.1405 46.9612 35.8672 46.5512 35.8672H42.4512C42.0412 35.8672 41.7679 36.1405 41.7679 36.5505V38.3955C41.6995 38.4639 41.5629 38.4639 41.4945 38.5322L40.1962 37.2339C39.9229 36.9605 39.5129 36.9605 39.2395 37.2339L36.3695 40.1039C36.2329 40.2405 36.1645 40.3772 36.1645 40.5822C36.1645 40.7872 36.2329 40.9239 36.3695 41.0605L37.6679 42.3589C37.5995 42.4955 37.5995 42.5639 37.5312 42.6322H35.5495C35.1395 42.6322 34.8662 42.9055 34.8662 43.3155V47.4155C34.8662 47.8255 35.1395 48.0989 35.5495 48.0989H37.4629C37.5312 48.1672 37.5312 48.3039 37.5995 48.3722L36.3012 49.6705C36.1645 49.8072 36.0962 49.9439 36.0962 50.1489C36.0962 50.3539 36.1645 50.4905 36.3012 50.6272L39.1712 53.4972C39.4445 53.7705 39.8545 53.7705 40.1279 53.4972L41.4262 52.1989C41.5629 52.2672 41.6312 52.2672 41.6995 52.3355V54.3172C41.6995 54.7272 41.9729 55.0005 42.3829 55.0005H46.4829C46.8929 55.0005 47.1662 54.7272 47.1662 54.3172V52.4039C47.2345 52.3355 47.3712 52.3355 47.4395 52.2672L48.7379 53.5655C49.0112 53.8389 49.4212 53.8389 49.6945 53.5655L52.5645 50.6955C52.7012 50.5589 52.7695 50.4222 52.7695 50.2172C52.7695 50.0122 52.7012 49.8755 52.5645 49.7389L51.2662 48.4405C51.3345 48.3722 51.3345 48.2355 51.4029 48.1672H53.3162C53.7262 48.1672 53.9995 47.8939 53.9995 47.4839V43.3839C53.9995 42.9739 53.7262 42.7005 53.3162 42.7005ZM52.6329 46.8005H50.9245C50.5829 46.8005 50.3095 47.0739 50.2412 47.3472C50.2412 47.4839 49.9679 48.0305 49.8995 48.1672C49.8312 48.3039 49.7629 48.4405 49.7629 48.5772C49.7629 48.7822 49.8312 48.9189 49.9679 49.0555L51.1295 50.2172L49.2162 52.1305L48.0545 50.9689C47.9179 50.8322 47.7812 50.7639 47.5762 50.7639C47.3712 50.7639 47.3029 50.8322 47.1662 50.9005C47.0295 50.9689 46.4829 51.1739 46.3462 51.2422C46.0045 51.3105 45.7995 51.5839 45.7995 51.9255V53.6339H43.0662V51.9255C43.0662 51.7205 42.9979 51.5839 42.8612 51.4472C42.7245 51.2422 41.5629 50.7639 41.2895 50.7639C41.0845 50.7639 40.9479 50.8322 40.8112 50.9689L39.6495 52.1305L37.7362 50.2172L38.8979 49.0555C39.0345 48.9189 39.1029 48.7822 39.1029 48.5772C39.1029 48.4405 39.0345 48.3039 38.9662 48.1672C38.8979 48.0305 38.6929 47.4839 38.6245 47.3472C38.5562 47.0055 38.2829 46.8005 37.9412 46.8005H36.2329V44.0672H37.9412C38.1462 44.0672 38.2829 43.9989 38.4195 43.8622C38.6245 43.7255 39.1029 42.5639 39.1029 42.2905C39.1029 42.0855 39.0345 41.9489 38.8979 41.8122L37.7362 40.6505L39.6495 38.7372L40.8112 39.8989C40.9479 40.0355 41.0845 40.1039 41.2895 40.1039C41.4945 40.1039 41.5629 40.0355 41.6995 39.9672C41.8362 39.8989 42.3829 39.6939 42.5195 39.6255C42.8612 39.5572 43.0662 39.2839 43.0662 38.9422V37.2339H45.7995V38.9422C45.7995 39.1472 45.8679 39.2839 46.0045 39.4205C46.1412 39.6255 47.3029 40.1039 47.5762 40.1039C47.7812 40.1039 47.9179 40.0355 48.0545 39.8989L49.2162 38.7372L51.1295 40.6505L49.9679 41.8122C49.8312 41.9489 49.7629 42.0855 49.7629 42.2905C49.7629 42.4272 49.8312 42.5639 49.8995 42.7005C49.9679 42.8372 50.1729 43.3839 50.2412 43.5205C50.3095 43.8622 50.5829 44.0672 50.9245 44.0672H52.6329V46.8005Z" fill="white" stroke="white" stroke-width="0.4"/>
<path d="M44.4335 42.6992C42.9302 42.6992 41.7002 43.9292 41.7002 45.4326C41.7002 46.9359 42.9302 48.1659 44.4335 48.1659C45.9369 48.1659 47.1669 46.9359 47.1669 45.4326C47.1669 43.9292 45.9369 42.6992 44.4335 42.6992ZM44.4335 46.7992C43.6819 46.7992 43.0669 46.1842 43.0669 45.4326C43.0669 44.6809 43.6819 44.0659 44.4335 44.0659C45.1852 44.0659 45.8002 44.6809 45.8002 45.4326C45.8002 46.1842 45.1852 46.7992 44.4335 46.7992Z" fill="white" stroke="white" stroke-width="0.4"/>
<path d="M42.3835 33.8163V20.4229L43.2719 21.3113L44.2285 20.3546L42.1785 18.3046C41.9052 18.0313 41.4952 18.0313 41.2219 18.3046L39.1719 20.3546L40.1285 21.3113L41.0169 20.4229V33.8163H42.3835Z" fill="white" stroke="white" stroke-width="0.4"/>
<path d="M47.8499 18.7832V32.1765L46.9616 31.2882L46.0049 32.2449L48.0549 34.2949C48.1915 34.4315 48.3282 34.4999 48.5332 34.4999C48.7382 34.4999 48.8749 34.4315 49.0116 34.2949L51.0616 32.2449L50.1049 31.2882L49.2166 32.1765V18.7832H47.8499Z" fill="white" stroke="white" stroke-width="0.4"/>
</svg>
